<svg id="Capa_1" enable-background="new 0 0 512 512" height="512" viewBox="0 0 512 512" width="512" xmlns="http://www.w3.org/2000/svg"><g><g><g><path d="m256 512c-68.38 0-132.668-26.629-181.02-74.98-48.351-48.352-74.98-112.64-74.98-181.02s26.629-132.667 74.98-181.019c48.352-48.352 112.64-74.981 181.02-74.981s132.667 26.629 181.02 74.981c48.351 48.352 74.98 112.639 74.98 181.019s-26.629 132.668-74.98 181.02c-48.353 48.351-112.64 74.98-181.02 74.98z" fill="#f4d844"/><path d="m437.02 74.981c-48.289-48.288-112.47-74.907-180.748-74.978v511.993c68.278-.071 132.459-26.69 180.747-74.977 48.352-48.351 74.981-112.639 74.981-181.019s-26.629-132.667-74.98-181.019z" fill="#ecbd2c"/></g><g><path d="m256 452c-108.075 0-196-87.925-196-196s87.925-196 196-196 196 87.925 196 196-87.925 196-196 196z" fill="#ecbd2c"/><path d="m256.272 60.003v391.993c107.95-.147 195.728-88.012 195.728-195.996s-87.778-195.849-195.728-195.997z" fill="#e28023"/></g><g><circle cx="256" cy="256" fill="#f4d844" r="166"/><path d="m256.272 90.003v331.993c91.407-.147 165.728-74.554 165.728-165.996s-74.321-165.849-165.728-165.997z" fill="#ecbd2c"/></g></g><g><path d="m345.466 300.054c0-24.005-12.775-45.078-31.88-56.79 9.126-10.402 14.677-24.016 14.677-38.909 0-23.588-13.899-43.983-33.934-53.448v-8.492c0-8.284-6.716-15-15-15s-15 6.716-15 15v2.858h-16.996v-2.858c0-8.284-6.716-15-15-15s-15 6.716-15 15v2.858h-3.799c-8.284 0-15 6.716-15 15v88.215.143 103.217c0 3.99 1.589 7.815 4.417 10.63 2.812 2.799 6.617 4.37 10.583 4.37h.067c.081 0 1.446-.007 3.732-.016v4.755c0 8.284 6.716 15 15 15s15-6.716 15-15v-4.877c5.868-.022 11.76-.043 16.996-.059v4.936c0 8.284 6.716 15 15 15s15-6.716 15-15v-6.791c29.286-6.981 51.137-33.35 51.137-64.742zm-76.284-66.618c-7.408 0-26.824.074-40.647.13v-58.294h40.647c16.035 0 29.081 13.046 29.081 29.082s-13.046 29.082-29.081 29.082zm9.718 103.183c-9.145 0-34.054.097-50.366.164v-73.295h50.366c20.162 0 36.565 16.403 36.565 36.566.001 20.162-16.402 36.565-36.565 36.565z" fill="#ecbd2c"/><path d="m313.586 243.263c9.126-10.402 14.677-24.016 14.677-38.909 0-23.588-13.899-43.983-33.934-53.448v-8.492c0-8.284-6.716-15-15-15s-15 6.716-15 15v2.858h-8.057v30h12.909c16.035 0 29.081 13.046 29.081 29.082s-13.046 29.081-29.081 29.081c-2.855 0-7.496.011-12.909.028v30.024h22.628c20.162 0 36.565 16.403 36.565 36.566 0 20.162-16.403 36.565-36.565 36.565-4.594 0-13.166.025-22.628.057v30c2.789-.01 5.501-.019 8.057-.026v4.936c0 8.284 6.716 15 15 15s15-6.716 15-15v-6.791c29.286-6.98 51.137-33.349 51.137-64.741 0-24.004-12.775-45.077-31.88-56.79z" fill="#e28023"/></g></g></svg>